<?xml version="1.0" standalone="no"?><!DOCTYPE svg PUBLIC "-//W3C//DTD SVG 1.1//EN" "http://www.w3.org/Graphics/SVG/1.1/DTD/svg11.dtd"><svg class="icon" height="512" viewBox="0 0 1024 1024" version="1.1" xmlns="http://www.w3.org/2000/svg"><path d="M454.4 345.287111c-86.613333 44.202667-189.155556 44.202667-275.797333 0L178.574222 345.287111c29.980444 36.892444 61.240889 81.692444 137.898667 81.692444C395.832889 426.979556 424.305778 382.094222 454.4 345.287111zM512 0C229.233778 0 0 229.233778 0 512s229.233778 512 512 512 512-229.233778 512-512S794.766222 0 512 0zM512.199111 978.631111c-0.056889 0-0.113778 0-0.199111 0C254.293333 978.631111 45.368889 769.706667 45.368889 512S254.293333 45.368889 512 45.368889 978.631111 254.293333 978.631111 512l0 0C978.659556 769.649778 769.848889 978.574222 512.199111 978.631111zM569.400889 345.116444c29.952 36.920889 61.212444 81.720889 137.927111 81.720889 79.36 0 107.832889-44.913778 137.898667-81.720889-42.524444 22.243556-89.912889 33.649778-137.898667 33.166222C659.313778 378.737778 611.925333 367.36 569.400889 345.116444zM617.386667 714.837333c-24.433778 4.465778-46.904889 16.298667-64.426667 33.905778-14.506667 14.279111-43.946667 33.194667-78.193778 0-28.672-30.577778-72.504889-41.784889-112.327111-28.700444-18.773333 6.030222-36.181333 15.701333-51.2 28.472889l20.167111 21.987556c11.804444-9.813333 25.372444-17.294222 39.992889-21.987556 29.468444-9.756444 61.923556-1.336889 82.887111 21.560889 15.559111 16.469333 37.006222 26.083556 59.619556 26.766222l0 0c1.621333-0.113778 3.271111-0.113778 4.892444 0 20.878222-2.104889 40.362667-11.576889 54.926222-26.680889 21.020444-20.679111 64.654222-48.298667 118.385778 0.312889l19.968-22.186667C682.040889 721.038222 650.126222 709.831111 617.386667 714.837333z" /></svg>